<svg version="1.1" id="Layer_1" xmlns="http://www.w3.org/2000/svg" xmlns:xlink="http://www.w3.org/1999/xlink" x="0px" y="0px"
	 width="100%" viewBox="0 0 512 512" enable-background="new 0 0 512 512" xml:space="preserve">
<path fill="#000000" opacity="1.000000" stroke="none" 
	d="
M280.000000,513.000000 
	C186.689316,513.000000 93.878632,513.000000 1.033972,513.000000 
	C1.033972,342.397614 1.033972,171.795242 1.033972,1.096426 
	C171.560699,1.096426 342.121490,1.096426 512.841125,1.096426 
	C512.841125,171.666550 512.841125,342.333252 512.841125,513.000000 
	C435.461884,513.000000 357.980927,513.000000 280.000000,513.000000 
M363.687195,78.308495 
	C360.706482,76.296318 357.785950,74.187263 354.733643,72.290268 
	C345.865204,66.778572 336.943909,61.351849 327.724792,55.273743 
	C310.717163,45.644173 292.531097,41.342400 272.113678,43.041000 
	C254.036789,44.018082 237.235474,49.787376 221.165970,57.533043 
	C199.508560,67.972130 181.433426,82.991714 167.086456,102.387474 
	C148.708847,127.232323 138.027924,154.543655 140.028946,186.876938 
	C140.340790,201.268967 144.699295,214.328094 153.183746,226.723251 
	C151.785461,227.204575 150.387177,227.685898 148.077576,228.043106 
	C132.849823,228.021286 118.210060,231.129272 104.029152,236.497391 
	C90.408493,241.653381 78.171822,249.126480 67.477325,259.035492 
	C55.858910,269.800507 47.173923,282.658691 40.993828,297.181152 
	C35.184170,310.833130 31.395466,324.956238 32.026901,340.920105 
	C32.354927,348.465271 31.796436,356.184784 33.237164,363.511139 
	C35.006409,372.507996 38.445652,381.176483 41.257011,390.684052 
	C47.783024,400.881134 53.959545,411.328369 60.996574,421.159668 
	C64.074257,425.459473 68.911682,428.499664 73.236877,432.714142 
	C79.427429,437.238892 85.159004,442.676941 91.916771,446.072998 
	C101.892380,451.086212 112.598091,454.646576 123.681488,459.198883 
	C140.700027,464.924988 158.304291,464.146576 175.859756,463.862366 
	C176.260330,463.855896 176.653458,463.389008 177.920395,463.043457 
	C179.584961,462.997192 181.288910,463.166748 182.908035,462.871429 
	C199.860367,459.779053 216.096832,454.542358 231.083969,445.928162 
	C246.872849,436.853149 260.282867,425.057404 271.296143,410.464966 
	C284.739899,392.652069 294.447540,372.933136 302.141327,352.105621 
	C302.579742,350.918884 303.876617,349.247620 304.850525,349.194031 
	C310.094696,348.905640 315.363068,349.057587 321.009521,349.057587 
	C321.009521,352.259735 320.899231,354.739655 321.031464,357.206543 
	C321.349274,363.135468 321.780823,369.058289 322.036133,375.863129 
	C323.768707,396.864258 327.894714,417.143311 340.048523,435.729004 
	C344.760071,441.048126 349.052734,446.827148 354.276093,451.584320 
	C363.298035,459.800964 373.947235,465.344391 386.503326,468.604980 
	C406.244293,472.822662 425.340485,471.859741 444.189087,463.576477 
	C466.159882,453.921173 483.243286,430.948730 482.072876,406.881836 
	C481.607941,397.321930 476.257141,393.216583 466.235687,396.386566 
	C456.798401,398.966949 448.034637,397.379272 440.216888,391.618500 
	C436.260162,388.702850 432.763458,385.162933 428.947357,381.207031 
	C426.960602,377.630371 424.188324,374.269653 423.134766,370.436493 
	C420.006531,359.054901 417.555084,347.487274 414.933411,335.154938 
	C413.959259,324.551636 412.799103,313.960938 412.080383,303.340363 
	C411.645355,296.912689 411.894348,290.438721 411.943695,283.055664 
	C412.635956,269.424835 413.030029,255.769806 414.132751,242.172272 
	C414.790344,234.063675 416.560272,226.045303 417.945831,217.159805 
	C419.976135,208.570633 421.517181,199.828690 424.141510,191.425034 
	C429.153107,175.376953 435.056000,159.568497 447.877106,147.841568 
	C452.161682,143.922653 457.711975,141.407089 462.594879,138.118134 
	C469.493561,133.471420 470.781830,126.275696 469.808838,118.948784 
	C468.893585,112.056572 465.473145,106.213699 457.486328,103.323212 
	C455.506714,103.217377 453.526306,103.006821 451.547638,103.022240 
	C435.249207,103.149193 418.923828,103.638519 402.613281,98.279533 
	C389.758087,91.816528 376.902893,85.353531 363.687195,78.308495 
z"/>
<path fill="#003CA7" opacity="1.000000" stroke="none" 
	d="
M322.166473,374.983551 
	C321.780823,369.058289 321.349274,363.135468 321.031464,357.206543 
	C320.899231,354.739655 321.009521,352.259735 321.009521,349.057587 
	C315.363068,349.057587 310.094696,348.905640 304.850525,349.194031 
	C303.876617,349.247620 302.579742,350.918884 302.141327,352.105621 
	C294.447540,372.933136 284.739899,392.652069 271.296143,410.464966 
	C260.282867,425.057404 246.872849,436.853149 231.083969,445.928162 
	C216.096832,454.542358 199.860367,459.779053 182.908035,462.871429 
	C181.288910,463.166748 179.584961,462.997192 177.520569,462.727142 
	C179.419235,458.982086 181.717743,455.553314 184.408875,452.039886 
	C189.869095,450.595856 194.936722,449.236511 200.373444,447.837158 
	C244.611359,433.900177 270.308746,401.956146 287.130615,360.697266 
	C289.958923,353.283600 292.595306,346.179382 295.406769,338.987549 
	C295.806183,338.753510 295.979126,338.560944 296.559570,338.291718 
	C302.012268,338.174835 307.006134,338.088501 312.466187,338.052094 
	C317.195007,338.122650 321.470093,338.355225 325.716797,338.105133 
	C330.087677,337.847778 332.303375,339.345276 331.635010,344.333405 
	C331.580688,353.160370 331.656128,361.596344 331.375183,370.049866 
	C328.068054,371.706116 325.117279,373.344849 322.166473,374.983551 
z"/>
<path fill="#0065D9" opacity="1.000000" stroke="none" 
	d="
M140.172470,185.989670 
	C138.027924,154.543655 148.708847,127.232323 167.086456,102.387474 
	C181.433426,82.991714 199.508560,67.972130 221.165970,57.533043 
	C237.235474,49.787376 254.036789,44.018082 272.442566,43.417007 
	C270.515442,47.179752 268.259430,50.566486 265.646423,54.096729 
	C260.835510,55.415630 256.381561,56.591019 251.544067,57.821045 
	C244.288284,60.322166 237.177399,62.252262 230.582977,65.299904 
	C191.176315,83.511909 165.129135,113.317978 153.280075,155.715118 
	C152.148651,164.065170 151.129333,172.024384 149.776886,180.084473 
	C146.353333,182.120117 143.262909,184.054901 140.172470,185.989670 
z"/>
<path fill="#005ED0" opacity="1.000000" stroke="none" 
	d="
M32.166481,339.991394 
	C31.395466,324.956238 35.184170,310.833130 40.993828,297.181152 
	C47.173923,282.658691 55.858910,269.800507 67.477325,259.035492 
	C78.171822,249.126480 90.408493,241.653381 104.029152,236.497391 
	C118.210060,231.129272 132.849823,228.021286 148.442566,228.429504 
	C147.533127,232.073715 144.115967,235.162491 147.599854,238.879486 
	C145.782043,239.013275 144.382172,239.096130 142.551910,239.139526 
	C135.009094,240.334244 127.896667,241.568436 120.404015,242.842773 
	C80.397499,253.805984 55.582848,279.280640 45.137962,319.379395 
	C44.179867,324.517853 43.338825,329.264648 42.155537,334.035095 
	C38.597687,336.036285 35.382084,338.013824 32.166481,339.991394 
z"/>
<path fill="#002389" opacity="1.000000" stroke="none" 
	d="
M466.989777,396.167847 
	C476.257141,393.216583 481.607941,397.321930 482.072876,406.881836 
	C483.243286,430.948730 466.159882,453.921173 444.189087,463.576477 
	C425.340485,471.859741 406.244293,472.822662 386.423645,468.047272 
	C389.031403,464.903107 391.718872,462.316650 394.824036,459.746460 
	C409.294220,461.489044 423.120056,460.769196 436.331177,455.244904 
	C455.154022,447.373932 468.026581,434.324799 471.498444,413.495575 
	C471.878815,411.213531 471.549774,408.813263 471.549774,406.312012 
	C467.212494,406.832733 463.614868,407.264648 460.069214,407.361877 
	C461.056122,405.544586 461.989166,404.060822 462.926331,402.579651 
	C464.279236,400.441406 465.635132,398.305023 466.989777,396.167847 
z"/>
<path fill="#0043AF" opacity="1.000000" stroke="none" 
	d="
M458.063812,103.963760 
	C465.473145,106.213699 468.893585,112.056572 469.808838,118.948784 
	C470.781830,126.275696 469.493561,133.471420 462.594879,138.118134 
	C457.711975,141.407089 452.161682,143.922653 447.877106,147.841568 
	C435.056000,159.568497 429.153107,175.376953 424.141510,191.425034 
	C421.517181,199.828690 419.976135,208.570633 417.524963,217.595139 
	C413.476624,220.362228 409.849152,222.693985 406.222290,224.622772 
	C407.441895,217.481171 408.660950,210.742523 409.994751,203.631958 
	C413.168518,193.204834 416.227570,183.149658 419.490356,172.812271 
	C420.042236,171.773636 420.420288,171.029419 420.734131,170.259018 
	C427.664520,153.245865 437.091766,138.352371 454.539734,130.205597 
	C458.465942,128.372391 459.188660,124.938011 459.017822,121.003510 
	C458.837128,116.840485 456.919312,114.107498 453.055267,112.494583 
	C454.792938,109.433372 456.428375,106.698570 458.063812,103.963760 
z"/>
<path fill="#0057C8" opacity="1.000000" stroke="none" 
	d="
M148.017792,238.828568 
	C144.115967,235.162491 147.533127,232.073715 148.898224,228.491577 
	C150.387177,227.685898 151.785461,227.204575 153.310638,226.179932 
	C156.212585,223.767303 158.987625,221.898010 161.993683,220.269241 
	C163.460403,222.038940 164.696152,223.568100 166.112259,225.379959 
	C174.188141,230.140793 182.083664,234.618927 190.287674,239.299286 
	C194.407074,240.446472 198.217987,241.391434 201.971252,242.664764 
	C199.080917,246.435104 196.248245,249.877075 193.120239,253.219070 
	C191.548645,252.418732 190.272400,251.718338 188.737762,250.794342 
	C180.651794,247.390518 172.824219,244.210266 164.598297,240.906631 
	C158.805908,240.131683 153.411850,239.480118 148.017792,238.828568 
z"/>
<path fill="#00349D" opacity="1.000000" stroke="none" 
	d="
M322.101318,375.423340 
	C325.117279,373.344849 328.068054,371.706116 331.440552,370.502350 
	C332.793488,377.325439 333.724701,383.713531 334.675964,390.520020 
	C336.670135,404.941010 341.607239,417.880341 348.405914,430.130371 
	C345.353485,431.832275 342.622375,433.440125 339.891235,435.047974 
	C327.894714,417.143311 323.768707,396.864258 322.101318,375.423340 
z"/>
<path fill="#003CA7" opacity="1.000000" stroke="none" 
	d="
M406.221680,225.025742 
	C409.849152,222.693985 413.476624,220.362228 417.467133,218.008423 
	C416.560272,226.045303 414.790344,234.063675 414.132751,242.172272 
	C413.030029,255.769806 412.635956,269.424835 411.547119,283.573822 
	C408.100616,286.061401 405.050659,288.030823 401.944214,289.541412 
	C401.779358,285.384827 401.671021,281.687103 401.632263,277.525146 
	C402.148773,267.041077 402.595764,257.021271 403.159851,246.614273 
	C404.106995,239.818115 404.936981,233.409119 405.854004,226.673615 
	C406.034576,225.906647 406.128113,225.466187 406.221680,225.025742 
z"/>
<path fill="#005ED0" opacity="1.000000" stroke="none" 
	d="
M266.003387,53.953220 
	C268.259430,50.566486 270.515442,47.179752 272.880707,43.480152 
	C292.531097,41.342400 310.717163,45.644173 327.777039,55.914841 
	C326.207947,59.039879 324.586609,61.523823 322.617218,63.927979 
	C317.512360,61.901062 312.755615,59.953934 307.665436,57.820740 
	C297.553772,56.148514 287.775482,54.662346 277.558289,53.143082 
	C273.414001,53.391060 269.708710,53.672142 266.003387,53.953220 
z"/>
<path fill="#0049B6" opacity="1.000000" stroke="none" 
	d="
M122.992882,458.825653 
	C112.598091,454.646576 101.892380,451.086212 91.916771,446.072998 
	C85.159004,442.676941 79.427429,437.238892 73.283783,432.128784 
	C75.253716,429.186310 77.176758,426.829163 79.401230,424.670349 
	C85.132484,428.580322 90.562309,432.291931 96.234924,436.245117 
	C103.985657,439.941010 111.493607,443.395416 119.353989,446.983582 
	C123.282341,448.317017 126.858269,449.516663 130.131393,450.918274 
	C127.550018,453.688751 125.271454,456.257202 122.992882,458.825653 
z"/>
<path fill="#002B92" opacity="1.000000" stroke="none" 
	d="
M339.969879,435.388489 
	C342.622375,433.440125 345.353485,431.832275 348.622192,430.388000 
	C350.420776,432.074646 351.681793,433.597748 353.024841,435.445892 
	C362.937927,446.594696 374.640045,454.380005 389.321960,457.993164 
	C391.238678,458.656250 392.822510,459.193207 394.406342,459.730164 
	C391.718872,462.316650 389.031403,464.903107 386.150269,467.764954 
	C373.947235,465.344391 363.298035,459.800964 354.276093,451.584320 
	C349.052734,446.827148 344.760071,441.048126 339.969879,435.388489 
z"/>
<path fill="#0049B6" opacity="1.000000" stroke="none" 
	d="
M457.775085,103.643494 
	C456.428375,106.698570 454.792938,109.433372 453.082825,112.583572 
	C453.008148,112.998970 453.058533,113.178345 452.591614,113.123062 
	C442.744141,113.106018 433.363556,113.144257 423.545410,113.127983 
	C415.058533,111.333565 407.009247,109.593666 398.987183,107.488205 
	C400.357605,104.374733 401.700745,101.626816 403.043884,98.878891 
	C418.923828,103.638519 435.249207,103.149193 451.547638,103.022240 
	C453.526306,103.006821 455.506714,103.217377 457.775085,103.643494 
z"/>
<path fill="#0043AF" opacity="1.000000" stroke="none" 
	d="
M123.337189,459.012268 
	C125.271454,456.257202 127.550018,453.688751 130.503387,450.940369 
	C132.451691,450.842072 133.725204,450.923676 135.336975,451.181091 
	C140.423904,452.026428 145.172562,452.695984 150.299301,453.530334 
	C156.120850,453.736511 161.564316,453.777893 167.428192,453.854736 
	C172.898529,453.209351 177.948471,452.528503 183.253357,451.915100 
	C183.677628,452.029938 183.846939,452.077240 184.016266,452.124573 
	C181.717743,455.553314 179.419235,458.982086 177.085388,462.773865 
	C176.653458,463.389008 176.260330,463.855896 175.859756,463.862366 
	C158.304291,464.146576 140.700027,464.924988 123.337189,459.012268 
z"/>
<path fill="#0050BF" opacity="1.000000" stroke="none" 
	d="
M79.099792,424.472046 
	C77.176758,426.829163 75.253716,429.186310 73.140335,431.827637 
	C68.911682,428.499664 64.074257,425.459473 60.996574,421.159668 
	C53.959545,411.328369 47.783024,400.881134 41.520000,390.226990 
	C44.449253,387.857819 47.115513,385.945679 49.934738,384.292084 
	C50.569519,385.413208 51.051338,386.275818 51.633064,387.496704 
	C56.930408,399.075043 63.552776,409.281952 72.991714,417.860107 
	C75.112061,420.253387 77.105927,422.362732 79.099792,424.472046 
z"/>
<path fill="#0058C9" opacity="1.000000" stroke="none" 
	d="
M49.781776,384.033539 
	C47.115513,385.945679 44.449253,387.857819 41.472992,389.878418 
	C38.445652,381.176483 35.006409,372.507996 33.237164,363.511139 
	C31.796436,356.184784 32.354927,348.465271 32.096691,340.455750 
	C35.382084,338.013824 38.597687,336.036285 42.179501,334.451630 
	C42.556396,336.236359 42.567081,337.628174 42.448265,339.406738 
	C42.876869,347.196014 43.434971,354.598633 43.983955,362.412201 
	C45.910480,369.893311 47.846127,376.963409 49.781776,384.033539 
z"/>
<path fill="#00349D" opacity="1.000000" stroke="none" 
	d="
M402.000732,290.000275 
	C405.050659,288.030823 408.100616,286.061401 411.493286,284.038757 
	C411.894348,290.438721 411.645355,296.912689 412.080383,303.340363 
	C412.799103,313.960938 413.959259,324.551636 414.541321,335.626373 
	C411.320129,337.743835 408.490997,339.389862 405.521667,340.680969 
	C404.646759,335.540497 403.912109,330.754974 403.184082,325.527191 
	C402.794067,313.390076 402.397400,301.695160 402.000732,290.000275 
z"/>
<path fill="#002F97" opacity="1.000000" stroke="none" 
	d="
M405.661896,341.035919 
	C408.490997,339.389862 411.320129,337.743835 414.494141,336.045074 
	C417.555084,347.487274 420.006531,359.054901 423.134766,370.436493 
	C424.188324,374.269653 426.960602,377.630371 428.844238,381.865479 
	C426.651154,384.714874 424.561218,386.905823 422.241364,388.894958 
	C419.044067,384.452484 416.076691,380.211823 413.057739,375.583557 
	C410.558105,363.809265 408.110016,352.422577 405.661896,341.035919 
z"/>
<path fill="#0050BF" opacity="1.000000" stroke="none" 
	d="
M402.828583,98.579216 
	C401.700745,101.626816 400.357605,104.374733 399.016663,107.593796 
	C399.018890,108.064941 399.074371,108.276917 398.701172,108.157852 
	C393.547363,106.142784 388.766754,104.246773 383.665100,102.178398 
	C380.223602,100.420952 377.103180,98.835869 373.699188,97.042480 
	C368.617401,93.839806 363.819122,90.845444 359.037262,87.487839 
	C360.718323,84.379906 362.383026,81.635216 364.047699,78.890533 
	C376.902893,85.353531 389.758087,91.816528 402.828583,98.579216 
z"/>
<path fill="#005ED0" opacity="1.000000" stroke="none" 
	d="
M161.762665,220.028717 
	C158.987625,221.898010 156.212585,223.767303 153.193817,225.870880 
	C144.699295,214.328094 140.340790,201.268967 140.100708,186.433304 
	C143.262909,184.054901 146.353333,182.120117 149.846817,180.454529 
	C150.402008,181.460068 150.554153,182.196457 150.592087,183.366638 
	C152.052521,191.525421 153.627151,199.250412 155.274658,207.320984 
	C157.485886,211.787277 159.624283,215.907990 161.762665,220.028717 
z"/>
<path fill="#00288F" opacity="1.000000" stroke="none" 
	d="
M422.471283,389.096771 
	C424.561218,386.905823 426.651154,384.714874 428.899933,382.214600 
	C432.763458,385.162933 436.260162,388.702850 440.216888,391.618500 
	C448.034637,397.379272 456.798401,398.966949 466.612732,396.277222 
	C465.635132,398.305023 464.279236,400.441406 462.926331,402.579651 
	C461.989166,404.060822 461.056122,405.544586 459.634857,407.427246 
	C452.424561,406.323212 445.700623,404.819092 438.674805,403.129303 
	C433.072357,398.328003 427.771820,393.712372 422.471283,389.096771 
z"/>
<path fill="#0057C8" opacity="1.000000" stroke="none" 
	d="
M363.867432,78.599518 
	C362.383026,81.635216 360.718323,84.379906 358.793274,87.521347 
	C358.532867,87.918098 358.040497,87.929520 357.817871,87.679977 
	C349.064514,81.617340 340.533844,75.804260 331.763916,69.757492 
	C328.671539,67.685127 325.818420,65.846451 322.965302,64.007767 
	C324.586609,61.523823 326.207947,59.039879 327.936340,56.223862 
	C336.943909,61.351849 345.865204,66.778572 354.733643,72.290268 
	C357.785950,74.187263 360.706482,76.296318 363.867432,78.599518 
z"/>
<path fill="#096EF2" opacity="1.000000" stroke="none" 
	d="
M401.944214,289.541412 
	C402.397400,301.695160 402.794067,313.390076 402.843384,325.628906 
	C400.684845,327.594452 398.708099,328.849792 397.087769,330.463104 
	C378.591400,348.879456 360.188812,367.390259 341.633179,385.746460 
	C339.731903,387.627319 337.001526,388.670044 334.655884,390.101654 
	C333.724701,383.713531 332.793488,377.325439 331.796936,370.484833 
	C331.656128,361.596344 331.580688,353.160370 331.983276,344.250092 
	C334.284271,342.373871 336.286377,341.151825 337.902863,339.542480 
	C357.124573,320.405823 376.263336,301.185730 395.512665,282.077026 
	C397.209625,280.392426 399.531219,279.337036 401.562683,277.989380 
	C401.671021,281.687103 401.779358,285.384827 401.944214,289.541412 
z"/>
<path fill="#0977F4" opacity="1.000000" stroke="none" 
	d="
M401.632263,277.525146 
	C399.531219,279.337036 397.209625,280.392426 395.512665,282.077026 
	C376.263336,301.185730 357.124573,320.405823 337.902863,339.542480 
	C336.286377,341.151825 334.284271,342.373871 332.113007,343.859131 
	C332.303375,339.345276 330.087677,337.847778 325.716797,338.105133 
	C321.470093,338.355225 317.195007,338.122650 312.513184,337.697845 
	C313.126190,335.633575 313.886627,333.702759 315.230743,332.353363 
	C342.493317,304.983582 369.802094,277.659668 397.192902,250.418259 
	C398.742645,248.876923 401.074768,248.122238 403.042755,247.001434 
	C402.595764,257.021271 402.148773,267.041077 401.632263,277.525146 
z"/>
<path fill="#097EF5" opacity="1.000000" stroke="none" 
	d="
M182.998413,451.847656 
	C177.948471,452.528503 172.898529,453.209351 167.521057,453.529358 
	C169.069641,450.671722 170.677017,447.906769 172.861435,445.717621 
	C220.608261,397.867218 268.427460,350.089020 316.186493,302.250732 
	C318.026398,300.407776 319.405640,298.104919 321.462463,295.970581 
	C326.282318,295.931213 330.639221,295.937622 334.895569,296.272705 
	C333.480133,298.283997 332.318512,300.118408 330.825775,301.624756 
	C320.544342,311.999969 310.152954,322.266541 299.908600,332.677979 
	C298.343628,334.268463 297.355591,336.426666 296.100708,338.322266 
	C295.979126,338.560944 295.806183,338.753510 295.060120,339.068298 
	C293.069153,340.281616 291.416046,341.142212 290.157593,342.398224 
	C255.575378,376.913177 221.018112,411.453217 186.534439,446.066528 
	C184.983810,447.623016 184.160492,449.904083 182.998413,451.847656 
z"/>
<path fill="#097BF5" opacity="1.000000" stroke="none" 
	d="
M296.559570,338.291718 
	C297.355591,336.426666 298.343628,334.268463 299.908600,332.677979 
	C310.152954,322.266541 320.544342,311.999969 330.825775,301.624756 
	C332.318512,300.118408 333.480133,298.283997 335.068329,296.013000 
	C335.769318,294.260345 336.196930,293.096100 336.976074,291.852478 
	C339.165802,290.401337 341.202179,289.228821 342.811768,287.627350 
	C361.663696,268.870270 380.421082,250.018082 399.305450,231.293884 
	C401.107147,229.507462 403.596710,228.414841 405.766968,227.000137 
	C404.936981,233.409119 404.106995,239.818115 403.159851,246.614258 
	C401.074768,248.122238 398.742645,248.876923 397.192902,250.418259 
	C369.802094,277.659668 342.493317,304.983582 315.230743,332.353363 
	C313.886627,333.702759 313.126190,335.633575 312.046997,337.647888 
	C307.006134,338.088501 302.012268,338.174835 296.559570,338.291718 
z"/>
<path fill="#097BF5" opacity="1.000000" stroke="none" 
	d="
M183.253357,451.915131 
	C184.160492,449.904083 184.983810,447.623016 186.534439,446.066528 
	C221.018112,411.453217 255.575378,376.913177 290.157593,342.398224 
	C291.416046,341.142212 293.069153,340.281616 294.885010,339.155945 
	C292.595306,346.179382 289.958923,353.283600 286.837341,360.839447 
	C285.828674,361.698547 285.253998,362.054871 284.789032,362.520721 
	C258.773254,388.587524 232.762039,414.658875 206.767090,440.746368 
	C204.455505,443.066193 202.255936,445.497589 200.004349,447.877167 
	C194.936722,449.236511 189.869095,450.595856 184.408875,452.039886 
	C183.846939,452.077240 183.677628,452.029938 183.253357,451.915131 
z"/>
<path fill="#0977F4" opacity="1.000000" stroke="none" 
	d="
M200.373444,447.837158 
	C202.255936,445.497589 204.455505,443.066193 206.767090,440.746368 
	C232.762039,414.658875 258.773254,388.587524 284.789032,362.520721 
	C285.253998,362.054871 285.828674,361.698547 286.645447,361.148926 
	C270.308746,401.956146 244.611359,433.900177 200.373444,447.837158 
z"/>
<path fill="#0AC3FE" opacity="1.000000" stroke="none" 
	d="
M150.706299,182.932831 
	C150.554153,182.196457 150.402008,181.460068 150.179932,180.353653 
	C151.129333,172.024384 152.148651,164.065170 153.564362,155.915237 
	C155.627106,154.995911 157.698837,154.674744 158.900528,153.479095 
	C188.906265,123.624001 218.840897,93.697220 248.690720,63.686237 
	C250.213913,62.154823 250.868561,59.759506 251.927582,57.766411 
	C256.381561,56.591019 260.835510,55.415630 265.646423,54.096729 
	C269.708710,53.672142 273.414001,53.391060 277.639374,53.472939 
	C277.338531,56.157341 277.169983,59.127186 275.601318,60.705418 
	C236.051758,100.496452 196.370850,140.157089 156.624084,179.751373 
	C155.103760,181.265869 152.698959,181.892471 150.706299,182.932831 
z"/>
<path fill="#0AC8FE" opacity="1.000000" stroke="none" 
	d="
M251.544067,57.821045 
	C250.868561,59.759506 250.213913,62.154823 248.690720,63.686237 
	C218.840897,93.697220 188.906265,123.624001 158.900528,153.479095 
	C157.698837,154.674744 155.627106,154.995911 153.676453,155.524414 
	C165.129135,113.317978 191.176315,83.511909 230.582977,65.299904 
	C237.177399,62.252262 244.288284,60.322166 251.544067,57.821045 
z"/>
<path fill="#0AB3FC" opacity="1.000000" stroke="none" 
	d="
M43.993073,362.001221 
	C43.434971,354.598633 42.876869,347.196014 42.845413,339.364380 
	C45.299995,337.737793 47.542545,336.856201 49.109337,335.295990 
	C79.028038,305.503296 108.887604,275.651062 138.672821,245.724930 
	C140.478653,243.910553 141.562500,241.377579 142.982300,239.178986 
	C144.382172,239.096130 145.782043,239.013275 147.599854,238.879486 
	C153.411850,239.480118 158.805908,240.131683 164.551331,241.258224 
	C163.981903,243.272598 163.325119,245.073364 162.099670,246.311157 
	C149.207916,259.332703 136.279480,272.319550 123.194099,285.145508 
	C121.684753,286.624939 119.162193,287.070648 117.160454,287.642029 
	C119.819962,282.076508 122.428429,276.864532 125.582336,270.562683 
	C122.810730,271.746094 121.106743,272.314453 119.554375,273.160919 
	C102.612366,282.398895 94.022118,296.676483 93.494705,316.041443 
	C91.278084,317.385254 89.163025,318.432159 87.570534,320.007355 
	C74.838043,332.601685 62.230820,345.322662 49.507393,357.926239 
	C47.900497,359.517975 45.842213,360.654022 43.993073,362.001221 
z"/>
<path fill="#0AB7FC" opacity="1.000000" stroke="none" 
	d="
M142.551910,239.139526 
	C141.562500,241.377579 140.478653,243.910553 138.672821,245.724930 
	C108.887604,275.651062 79.028038,305.503296 49.109337,335.295990 
	C47.542545,336.856201 45.299995,337.737793 42.974907,338.977661 
	C42.567081,337.628174 42.556396,336.236359 42.521748,334.427979 
	C43.338825,329.264648 44.179867,324.517853 45.492798,319.359711 
	C47.573223,318.191864 49.548260,317.804260 50.736099,316.624268 
	C73.708969,293.803040 96.616463,270.915649 119.406334,247.911987 
	C120.485382,246.822845 120.352654,244.533188 120.784248,242.802612 
	C127.896667,241.568436 135.009094,240.334244 142.551910,239.139526 
z"/>
<path fill="#0ABDFD" opacity="1.000000" stroke="none" 
	d="
M120.404015,242.842758 
	C120.352654,244.533188 120.485382,246.822845 119.406334,247.911987 
	C96.616463,270.915649 73.708969,293.803040 50.736099,316.624268 
	C49.548260,317.804260 47.573223,318.191864 45.609856,318.968079 
	C55.582848,279.280640 80.397499,253.805984 120.404015,242.842758 
z"/>
<path fill="#0847ED" opacity="1.000000" stroke="none" 
	d="
M438.976685,403.314972 
	C445.700623,404.819092 452.424561,406.323212 459.582886,407.761963 
	C463.614868,407.264648 467.212494,406.832733 471.549774,406.312012 
	C471.549774,408.813263 471.878815,411.213531 471.498444,413.495575 
	C468.026581,434.324799 455.154022,447.373932 436.331177,455.244904 
	C423.120056,460.769196 409.294220,461.489044 394.824036,459.746429 
	C392.822510,459.193207 391.238678,458.656250 389.374023,457.649719 
	C390.386780,455.295685 391.430359,453.163605 393.013123,451.565582 
	C406.966309,437.477661 421.052765,423.521637 434.987183,409.415314 
	C436.660583,407.721283 437.663177,405.364532 438.976685,403.314972 
z"/>
<path fill="#0989F6" opacity="1.000000" stroke="none" 
	d="
M452.980591,112.909973 
	C456.919312,114.107498 458.837128,116.840485 459.017822,121.003510 
	C459.188660,124.938011 458.465942,128.372391 454.539734,130.205597 
	C437.091766,138.352371 427.664520,153.245865 420.734131,170.259018 
	C420.420288,171.029419 420.042236,171.773636 419.137085,172.886810 
	C416.755371,174.626923 414.742645,175.821426 413.134552,177.422333 
	C393.266724,197.202118 373.496857,217.080505 353.570435,236.800797 
	C351.689117,238.662643 348.919556,239.626984 346.549561,240.660751 
	C348.092468,233.229858 349.648224,226.146210 351.382233,218.788010 
	C352.217773,216.676483 352.875061,214.839493 353.915894,212.962524 
	C356.121979,211.857651 358.271271,211.120895 359.718872,209.679443 
	C389.804321,179.722061 419.835480,149.709900 449.761993,119.593925 
	C451.377197,117.968483 451.982910,115.339943 453.058533,113.178345 
	C453.058533,113.178345 453.008148,112.998970 452.980591,112.909973 
z"/>
<path fill="#0984F6" opacity="1.000000" stroke="none" 
	d="
M346.562378,241.007996 
	C348.919556,239.626984 351.689117,238.662643 353.570435,236.800797 
	C373.496857,217.080505 393.266724,197.202118 413.134552,177.422333 
	C414.742645,175.821426 416.755371,174.626923 418.933350,173.169037 
	C416.227570,183.149658 413.168518,193.204834 409.681091,203.739685 
	C407.471283,205.676880 405.552155,206.996246 403.929474,208.613113 
	C385.371613,227.104431 366.897400,245.679962 348.279358,264.110229 
	C346.236755,266.132202 343.437134,267.389465 340.987396,268.573212 
	C342.844910,259.099365 344.703644,250.053696 346.562378,241.007996 
z"/>
<path fill="#097EF5" opacity="1.000000" stroke="none" 
	d="
M340.988617,269.001373 
	C343.437134,267.389465 346.236755,266.132202 348.279358,264.110229 
	C366.897400,245.679962 385.371613,227.104431 403.929474,208.613113 
	C405.552155,206.996246 407.471283,205.676880 409.566345,204.111618 
	C408.660950,210.742523 407.441895,217.481171 406.222290,224.622772 
	C406.128113,225.466187 406.034576,225.906647 405.854004,226.673615 
	C403.596710,228.414841 401.107147,229.507462 399.305450,231.293884 
	C380.421082,250.018082 361.663696,268.870270 342.811768,287.627350 
	C341.202179,289.228821 339.165802,290.401337 337.025970,291.427582 
	C338.145721,283.721802 339.567169,276.361603 340.988617,269.001373 
z"/>
<path fill="#09A3F9" opacity="1.000000" stroke="none" 
	d="
M188.996155,251.017944 
	C190.272400,251.718338 191.548645,252.418732 193.302338,253.504395 
	C200.418182,260.563080 206.732224,267.450897 208.767502,277.171539 
	C206.549133,279.183716 204.568436,280.966858 202.674683,282.837921 
	C182.644669,302.627991 162.628510,322.432098 142.266266,342.171844 
	C133.193970,339.532593 126.599037,334.061432 121.156586,326.538574 
	C120.233665,324.518005 119.429031,322.827576 119.021660,321.099884 
	C121.442383,320.042603 123.893150,319.454102 125.424660,317.937378 
	C145.668930,297.888733 165.823593,277.748810 185.855499,257.488129 
	C187.451294,255.874115 187.974503,253.199631 188.996155,251.017944 
z"/>
<path fill="#0AAFFB" opacity="1.000000" stroke="none" 
	d="
M189.979218,239.097061 
	C182.083664,234.618927 174.188141,230.140793 166.411224,225.193390 
	C168.844421,223.157959 171.468842,221.905670 173.424149,219.975540 
	C187.765472,205.818863 201.993759,191.547241 216.191376,177.246033 
	C217.678253,175.748291 218.734299,173.822830 220.413757,172.041260 
	C228.504990,171.715561 235.437057,169.450653 241.310333,164.371674 
	C247.182022,159.294067 247.537323,159.274811 253.573242,164.154144 
	C254.726303,165.086258 255.866531,166.034256 257.127563,167.224701 
	C257.503448,167.956314 257.764496,168.438156 257.920349,169.249573 
	C256.614563,171.148071 255.572159,172.874649 254.189514,174.262161 
	C234.462158,194.058960 214.681595,213.802704 194.939178,233.584503 
	C193.195404,235.331757 191.628342,237.255371 189.979218,239.097061 
z"/>
<path fill="#0AACFB" opacity="1.000000" stroke="none" 
	d="
M188.737762,250.794342 
	C187.974503,253.199631 187.451294,255.874115 185.855499,257.488129 
	C165.823593,277.748810 145.668930,297.888733 125.424660,317.937378 
	C123.893150,319.454102 121.442383,320.042603 118.827728,320.814270 
	C113.221634,309.869690 112.790131,299.014862 117.109406,287.995605 
	C119.162193,287.070648 121.684753,286.624939 123.194099,285.145508 
	C136.279480,272.319550 149.207916,259.332703 162.099670,246.311157 
	C163.325119,245.073364 163.981903,243.272598 164.949677,241.381607 
	C172.824219,244.210266 180.651794,247.390518 188.737762,250.794342 
z"/>
<path fill="#09A7FA" opacity="1.000000" stroke="none" 
	d="
M190.287689,239.299286 
	C191.628342,237.255371 193.195404,235.331757 194.939178,233.584503 
	C214.681595,213.802704 234.462158,194.058960 254.189514,174.262161 
	C255.572159,172.874649 256.614563,171.148071 258.193420,169.461380 
	C263.080139,175.864349 265.448944,183.101257 265.540039,191.160950 
	C261.316559,195.565430 257.485413,199.923676 253.413055,204.043488 
	C242.661774,214.920090 231.771988,225.659821 221.028778,236.544296 
	C219.443649,238.150299 218.355576,240.246902 216.658493,242.265472 
	C211.529266,242.388412 206.779099,242.362396 202.028915,242.336380 
	C198.217987,241.391434 194.407074,240.446472 190.287689,239.299286 
z"/>
<path fill="#0050BF" opacity="1.000000" stroke="none" 
	d="
M201.971252,242.664764 
	C206.779099,242.362396 211.529266,242.388412 217.085510,242.275620 
	C219.700684,241.919235 221.540207,241.843353 223.314301,241.462631 
	C247.086502,236.361282 261.656921,222.191467 266.336853,197.896973 
	C271.800568,193.002502 276.798401,188.044128 282.155273,183.509949 
	C284.122772,181.844620 286.939545,181.182617 289.237823,180.404465 
	C284.675720,190.428543 280.244720,200.111130 275.600464,210.077469 
	C271.248322,220.904953 267.109406,231.448669 262.618591,242.041504 
	C260.520416,243.214981 258.668396,244.206375 257.050537,245.492371 
	C254.017578,247.903214 251.120148,250.484558 248.121078,252.623322 
	C249.087936,249.198929 250.100052,246.146210 251.357437,242.969360 
	C251.652451,242.420258 251.702194,241.995270 251.751938,241.570282 
	C251.285980,241.798935 250.820023,242.027588 250.050140,242.439789 
	C237.029510,249.575958 223.696793,254.205658 208.135406,252.863022 
	C214.204117,262.439178 220.179108,271.131256 220.777496,282.088806 
	C217.691483,284.799591 214.929733,287.399414 212.100037,289.593872 
	C211.036575,285.120087 210.041046,281.051727 209.045532,276.983337 
	C206.732224,267.450897 200.418182,260.563080 193.597687,253.604340 
	C196.248245,249.877075 199.080917,246.435104 201.971252,242.664764 
z"/>
<path fill="#0AB7FC" opacity="1.000000" stroke="none" 
	d="
M219.990234,172.095810 
	C218.734299,173.822830 217.678253,175.748291 216.191376,177.246033 
	C201.993759,191.547241 187.765472,205.818863 173.424149,219.975540 
	C171.468842,221.905670 168.844421,223.157959 166.230865,224.910675 
	C164.696152,223.568100 163.460403,222.038940 161.993668,220.269226 
	C159.624283,215.907990 157.485886,211.787277 155.598694,207.229919 
	C158.815567,204.446503 162.034943,202.355576 164.703445,199.709167 
	C176.977615,187.536606 189.098022,175.209030 201.523804,163.113724 
	C203.184586,164.522552 204.595154,165.754730 206.214722,167.263763 
	C210.945908,169.059021 215.468063,170.577423 219.990234,172.095810 
z"/>
<path fill="#0860F1" opacity="1.000000" stroke="none" 
	d="
M334.675964,390.520020 
	C337.001526,388.670044 339.731903,387.627319 341.633179,385.746460 
	C360.188812,367.390259 378.591400,348.879456 397.087769,330.463104 
	C398.708099,328.849792 400.684845,327.594452 402.836731,326.071136 
	C403.912109,330.754974 404.646759,335.540497 405.521667,340.680969 
	C408.110016,352.422577 410.558105,363.809265 412.724243,375.687744 
	C410.752594,377.495270 408.906067,378.653076 407.397858,380.151459 
	C394.290100,393.173645 381.216919,406.230988 368.190826,419.334900 
	C363.033722,424.522858 358.021179,429.854584 352.942810,435.120850 
	C351.681793,433.597748 350.420776,432.074646 348.943481,430.293915 
	C341.607239,417.880341 336.670135,404.941010 334.675964,390.520020 
z"/>
<path fill="#0ABDFD" opacity="1.000000" stroke="none" 
	d="
M201.273590,162.937057 
	C189.098022,175.209030 176.977615,187.536606 164.703445,199.709167 
	C162.034943,202.355576 158.815567,204.446503 155.525848,206.884338 
	C153.627151,199.250412 152.052521,191.525421 150.592087,183.366638 
	C152.698959,181.892471 155.103760,181.265869 156.624084,179.751373 
	C196.370850,140.157089 236.051758,100.496452 275.601318,60.705418 
	C277.169983,59.127186 277.338531,56.157341 278.078308,53.506039 
	C287.775482,54.662346 297.553772,56.148514 307.561951,58.144703 
	C306.350250,60.447456 305.057434,62.388283 303.443878,64.009926 
	C287.998199,79.532898 272.456177,94.960304 257.071686,110.543388 
	C255.311356,112.326431 254.345123,114.893456 252.617859,117.203781 
	C250.417267,117.560410 248.606384,117.789474 246.802277,118.063339 
	C232.721313,120.200798 219.005051,123.394409 207.570572,132.601028 
	C196.945587,141.155884 194.925400,151.207962 201.273590,162.937057 
z"/>
<path fill="#0AB5FC" opacity="1.000000" stroke="none" 
	d="
M253.010681,117.096962 
	C254.345123,114.893456 255.311356,112.326431 257.071686,110.543388 
	C272.456177,94.960304 287.998199,79.532898 303.443878,64.009926 
	C305.057434,62.388283 306.350250,60.447456 307.895355,58.330765 
	C312.755615,59.953934 317.512360,61.901062 322.617218,63.927982 
	C325.818420,65.846451 328.671539,67.685127 331.716370,70.112198 
	C330.649780,72.588913 329.655884,74.738174 328.090973,76.323914 
	C316.453857,88.115974 304.662445,99.755821 293.034241,111.556557 
	C291.354492,113.261246 290.287964,115.570198 288.471924,117.558174 
	C277.008575,117.513451 266.010986,117.510063 254.680328,117.434349 
	C253.901733,117.273659 253.456207,117.185310 253.010681,117.096962 
z"/>
<path fill="#098FF7" opacity="1.000000" stroke="none" 
	d="
M119.001556,446.849823 
	C111.493607,443.395416 103.985657,439.941010 96.508911,436.056091 
	C118.944405,413.324738 141.363647,391.038879 163.707809,368.678009 
	C164.802444,367.582550 165.240143,365.830627 166.379974,364.272522 
	C188.862015,360.017242 206.035721,347.642639 219.132874,330.248901 
	C228.864548,317.324707 236.446548,302.781860 245.261139,289.101135 
	C247.572617,288.113007 249.997421,287.374817 251.587158,285.795868 
	C276.216034,261.334229 300.712921,236.739716 325.331207,212.267365 
	C327.128143,210.481064 329.623199,209.397003 331.725891,208.342529 
	C328.454193,219.799805 325.250305,230.901001 321.979309,242.228256 
	C321.912201,242.454330 321.850250,242.921906 321.688782,243.159088 
	C321.394073,243.946991 321.260803,244.497696 321.045288,245.020538 
	C320.962982,244.992676 320.799347,244.934296 320.474426,245.039474 
	C318.129700,246.566971 315.850067,247.729095 314.127625,249.449158 
	C250.475174,313.012695 186.864609,376.618195 123.315750,440.285278 
	C121.503952,442.100433 120.423180,444.645233 119.001556,446.849823 
z"/>
<path fill="#0989F6" opacity="1.000000" stroke="none" 
	d="
M119.353989,446.983582 
	C120.423180,444.645233 121.503952,442.100433 123.315750,440.285278 
	C186.864609,376.618195 250.475174,313.012695 314.127625,249.449158 
	C315.850067,247.729095 318.129700,246.566971 320.457092,245.424484 
	C318.198395,254.804565 315.632050,263.904785 312.736328,273.105042 
	C310.835144,274.406403 309.102142,275.446350 307.714813,276.832336 
	C251.361343,333.131439 195.033249,389.455933 138.744278,445.819458 
	C137.256500,447.309143 136.236740,449.266205 134.998718,451.005280 
	C133.725204,450.923676 132.451691,450.842072 130.806183,450.738403 
	C126.858269,449.516663 123.282341,448.317017 119.353989,446.983582 
z"/>
<path fill="#0998F8" opacity="1.000000" stroke="none" 
	d="
M165.983734,364.384399 
	C165.240143,365.830627 164.802444,367.582550 163.707809,368.678009 
	C141.363647,391.038879 118.944405,413.324738 96.266129,435.814545 
	C90.562309,432.291931 85.132484,428.580322 79.401230,424.670349 
	C77.105927,422.362732 75.112061,420.253387 73.094551,417.484680 
	C74.443123,414.987854 75.618225,412.954620 77.218254,411.343384 
	C92.065353,396.392578 107.007118,381.535797 121.853615,366.584412 
	C123.451675,364.975067 124.619514,362.938477 126.380295,361.081024 
	C131.518616,362.026764 136.263565,362.991547 141.408173,364.079407 
	C149.866486,364.263123 157.925125,364.323761 165.983734,364.384399 
z"/>
<path fill="#0852EF" opacity="1.000000" stroke="none" 
	d="
M353.024841,435.445892 
	C358.021179,429.854584 363.033722,424.522858 368.190826,419.334900 
	C381.216919,406.230988 394.290100,393.173645 407.397858,380.151459 
	C408.906067,378.653076 410.752594,377.495270 412.775757,376.075378 
	C416.076691,380.211823 419.044067,384.452484 422.241364,388.894958 
	C427.771820,393.712372 433.072357,398.328003 438.674805,403.129303 
	C437.663177,405.364532 436.660583,407.721283 434.987183,409.415314 
	C421.052765,423.521637 406.966309,437.477661 393.013123,451.565582 
	C391.430359,453.163605 390.386780,455.295685 389.041138,457.523560 
	C374.640045,454.380005 362.937927,446.594696 353.024841,435.445892 
z"/>
<path fill="#0995F8" opacity="1.000000" stroke="none" 
	d="
M331.793671,207.986450 
	C329.623199,209.397003 327.128143,210.481064 325.331207,212.267365 
	C300.712921,236.739716 276.216034,261.334229 251.587158,285.795868 
	C249.997421,287.374817 247.572617,288.113007 245.336243,288.748749 
	C251.060516,273.439331 256.984833,258.623444 263.178284,243.941833 
	C265.415894,243.097717 267.813446,242.549957 269.290527,241.078308 
	C311.506256,199.018433 353.647064,156.883255 395.701233,114.661865 
	C397.325348,113.031303 397.972168,110.427315 399.074371,108.276917 
	C399.074371,108.276917 399.018890,108.064941 398.989410,107.959351 
	C407.009247,109.593666 415.058533,111.333565 423.528137,113.488113 
	C422.748810,115.984871 421.908081,118.413750 420.288452,120.090050 
	C412.591248,128.056458 404.647705,135.784241 396.878296,143.681992 
	C395.405609,145.178986 394.323883,147.060654 392.677917,148.862686 
	C373.135925,153.838654 356.750427,163.204956 345.945282,180.118713 
	C340.363739,188.855804 336.457092,198.662842 331.793671,207.986450 
z"/>
<path fill="#098DF7" opacity="1.000000" stroke="none" 
	d="
M393.061768,148.764816 
	C394.323883,147.060654 395.405609,145.178986 396.878296,143.681992 
	C404.647705,135.784241 412.591248,128.056458 420.288452,120.090050 
	C421.908081,118.413750 422.748810,115.984871 423.965698,113.542633 
	C433.363556,113.144257 442.744141,113.106018 452.591614,113.123062 
	C451.982910,115.339943 451.377197,117.968483 449.761993,119.593925 
	C419.835480,149.709900 389.804321,179.722061 359.718872,209.679443 
	C358.271271,211.120895 356.121979,211.857651 354.007751,212.564362 
	C355.094971,207.759567 356.342529,203.267136 357.875519,198.874298 
	C364.579315,179.664215 373.974915,162.314835 391.564331,150.693436 
	C392.207489,150.268509 392.569000,149.417343 393.061768,148.764816 
z"/>
<path fill="#0986F6" opacity="1.000000" stroke="none" 
	d="
M135.336990,451.181091 
	C136.236740,449.266205 137.256500,447.309143 138.744278,445.819458 
	C195.033249,389.455933 251.361343,333.131439 307.714813,276.832336 
	C309.102142,275.446350 310.835144,274.406403 312.737091,273.507812 
	C311.168915,281.152710 309.270599,288.494873 307.023743,295.950623 
	C304.967377,297.359192 303.080139,298.474548 301.577606,299.975159 
	C252.299179,349.190643 203.049316,398.434753 153.848297,447.727600 
	C152.255356,449.323547 151.217712,451.473724 149.921204,453.365540 
	C145.172562,452.695984 140.423904,452.026428 135.336990,451.181091 
z"/>
<path fill="#0982F5" opacity="1.000000" stroke="none" 
	d="
M150.299286,453.530334 
	C151.217712,451.473724 152.255356,449.323547 153.848297,447.727600 
	C203.049316,398.434753 252.299179,349.190643 301.577606,299.975159 
	C303.080139,298.474548 304.967377,297.359192 307.457184,295.944733 
	C312.492584,295.888947 316.746063,295.952667 320.999542,296.016357 
	C319.405640,298.104919 318.026398,300.407776 316.186493,302.250732 
	C268.427460,350.089020 220.608261,397.867218 172.861435,445.717621 
	C170.677017,447.906769 169.069641,450.671722 167.100647,453.493896 
	C161.564316,453.777893 156.120850,453.736511 150.299286,453.530334 
z"/>
<path fill="#09A3F9" opacity="1.000000" stroke="none" 
	d="
M125.986923,361.100098 
	C124.619514,362.938477 123.451675,364.975067 121.853615,366.584412 
	C107.007118,381.535797 92.065353,396.392578 77.218254,411.343384 
	C75.618225,412.954620 74.443123,414.987854 72.968063,417.200745 
	C63.552776,409.281952 56.930408,399.075043 52.049152,387.457367 
	C54.737492,385.712555 57.543854,384.802887 59.412590,382.948425 
	C73.399719,369.068024 87.201584,355.000946 101.291061,341.193970 
	C102.329666,342.308899 103.138672,343.222229 104.107452,344.423065 
	C109.862389,352.353394 117.241463,357.632141 125.986923,361.100098 
z"/>
<path fill="#0AACFB" opacity="1.000000" stroke="none" 
	d="
M101.061470,340.992340 
	C87.201584,355.000946 73.399719,369.068024 59.412590,382.948425 
	C57.543854,384.802887 54.737492,385.712555 51.949249,387.099060 
	C51.051338,386.275818 50.569519,385.413208 49.934734,384.292084 
	C47.846127,376.963409 45.910480,369.893311 43.983955,362.412201 
	C45.842213,360.654022 47.900497,359.517975 49.507393,357.926239 
	C62.230820,345.322662 74.838043,332.601685 87.570534,320.007355 
	C89.163025,318.432159 91.278084,317.385254 93.551994,316.468201 
	C96.322472,324.892670 98.691971,332.942505 101.061470,340.992340 
z"/>
<path fill="#099BF9" opacity="1.000000" stroke="none" 
	d="
M398.701172,108.157852 
	C397.972168,110.427315 397.325348,113.031303 395.701233,114.661865 
	C353.647064,156.883255 311.506256,199.018433 269.290527,241.078308 
	C267.813446,242.549957 265.415894,243.097717 263.189911,243.639862 
	C262.945129,242.799896 262.957794,242.396133 262.970459,241.992386 
	C267.109406,231.448669 271.248322,220.904953 275.869415,210.206696 
	C277.980011,209.122253 279.910828,208.495758 281.192749,207.218155 
	C314.294922,174.227753 347.344330,141.184280 380.329895,108.077293 
	C381.891449,106.509995 382.782715,104.274864 383.986145,102.350769 
	C388.766754,104.246773 393.547363,106.142784 398.701172,108.157852 
z"/>
<path fill="#099FF9" opacity="1.000000" stroke="none" 
	d="
M383.665100,102.178391 
	C382.782715,104.274864 381.891449,106.509995 380.329895,108.077293 
	C347.344330,141.184280 314.294922,174.227753 281.192749,207.218155 
	C279.910828,208.495758 277.980011,209.122253 276.082642,209.922943 
	C280.244720,200.111130 284.675720,190.428543 289.454773,180.173477 
	C303.785492,155.476181 324.209045,139.361450 352.400116,131.630524 
	C349.929840,129.564240 348.964966,128.757141 348.064575,127.612259 
	C349.103821,125.981361 349.947083,124.558273 351.075226,123.416679 
	C357.355438,117.061600 363.830872,110.893532 369.953033,104.391708 
	C371.772278,102.459633 372.665283,99.655380 373.982727,97.250786 
	C377.103180,98.835869 380.223602,100.420952 383.665100,102.178391 
z"/>
<path fill="#09A3F9" opacity="1.000000" stroke="none" 
	d="
M373.699188,97.042480 
	C372.665283,99.655380 371.772278,102.459633 369.953033,104.391708 
	C363.830872,110.893532 357.355438,117.061600 351.075226,123.416679 
	C349.947083,124.558273 349.103821,125.981361 347.669769,127.583099 
	C339.284515,126.058510 331.358582,124.225311 323.743927,122.182022 
	C335.383667,110.624466 346.712097,99.276993 358.040497,87.929520 
	C358.040497,87.929520 358.532867,87.918098 358.776855,87.884590 
	C363.819122,90.845444 368.617401,93.839806 373.699188,97.042480 
z"/>
<path fill="#0AACFB" opacity="1.000000" stroke="none" 
	d="
M357.817871,87.679977 
	C346.712097,99.276993 335.383667,110.624466 323.342590,122.148537 
	C316.120483,121.443344 309.610962,120.561554 302.736206,119.537552 
	C297.893158,118.796738 293.415405,118.198128 288.937653,117.599518 
	C290.287964,115.570198 291.354492,113.261246 293.034241,111.556557 
	C304.662445,99.755821 316.453857,88.115974 328.090973,76.323914 
	C329.655884,74.738174 330.649780,72.588913 331.955627,70.345886 
	C340.533844,75.804260 349.064514,81.617340 357.817871,87.679977 
z"/>
<path fill="#0043AF" opacity="1.000000" stroke="none" 
	d="
M321.462463,295.970581 
	C316.746063,295.952667 312.492584,295.888947 307.805664,295.831116 
	C309.270599,288.494873 311.168915,281.152710 313.066467,273.407806 
	C315.632050,263.904785 318.198395,254.804565 320.782043,245.319305 
	C320.799347,244.934296 320.962982,244.992676 321.239319,244.908081 
	C321.627167,244.189621 321.738708,243.555771 321.850250,242.921906 
	C321.850250,242.921906 321.912201,242.454330 322.315247,242.138214 
	C325.812592,239.880890 328.906921,237.939667 332.048462,236.324310 
	C332.433777,237.449265 332.771820,238.248383 333.071655,239.451324 
	C329.181458,254.747864 325.329498,269.640625 321.415955,284.771362 
	C323.147675,284.771362 324.758362,284.771362 326.799927,284.771362 
	C328.204712,277.689362 329.516327,270.631836 331.015472,263.614349 
	C333.912659,250.052719 336.915588,236.513687 340.255981,222.953094 
	C342.518768,222.039078 344.352020,221.009262 346.297028,220.275803 
	C347.862549,219.685440 349.563263,219.453506 351.203979,219.062546 
	C349.648224,226.146210 348.092468,233.229858 346.549561,240.660767 
	C344.703644,250.053696 342.844910,259.099365 340.987396,268.573212 
	C339.567169,276.361603 338.145721,283.721802 336.674377,291.506958 
	C336.196930,293.096100 335.769318,294.260345 335.168945,295.684326 
	C330.639221,295.937622 326.282318,295.931213 321.462463,295.970581 
z"/>
<path fill="#0057C8" opacity="1.000000" stroke="none" 
	d="
M101.291061,341.193970 
	C98.691971,332.942505 96.322472,324.892670 93.895676,316.416077 
	C94.022118,296.676483 102.612366,282.398895 119.554375,273.160919 
	C121.106743,272.314453 122.810730,271.746094 125.582336,270.562683 
	C122.428429,276.864532 119.819962,282.076508 117.160461,287.642059 
	C112.790131,299.014862 113.221634,309.869690 118.430450,320.851562 
	C119.429031,322.827576 120.233665,324.518005 120.793243,326.643555 
	C117.960564,329.086426 115.372955,331.094147 112.482895,332.925537 
	C109.837677,327.856628 107.494919,322.964050 105.152153,318.071503 
	C104.754059,318.202087 104.355972,318.332672 103.957886,318.463257 
	C106.013245,324.297852 108.068604,330.132477 109.837357,336.153839 
	C107.683067,338.938904 105.815369,341.537231 103.947678,344.135529 
	C103.138672,343.222229 102.329666,342.308899 101.291061,341.193970 
z"/>
<path fill="#0049B6" opacity="1.000000" stroke="none" 
	d="
M332.001221,235.998444 
	C328.906921,237.939667 325.812592,239.880890 322.382324,241.912140 
	C325.250305,230.901001 328.454193,219.799805 331.725891,208.342529 
	C336.457092,198.662842 340.363739,188.855804 345.945282,180.118713 
	C356.750427,163.204956 373.135925,153.838654 392.677917,148.862686 
	C392.569000,149.417343 392.207489,150.268509 391.564331,150.693436 
	C373.974915,162.314835 364.579315,179.664215 357.875519,198.874298 
	C356.342529,203.267136 355.094971,207.759567 353.624176,212.604340 
	C352.875061,214.839493 352.217773,216.676483 351.382233,218.788010 
	C349.563263,219.453506 347.862549,219.685440 346.297028,220.275803 
	C344.352020,221.009262 342.518768,222.039078 340.309692,222.581848 
	C340.295166,220.554764 340.608215,218.886734 340.921265,217.218704 
	C340.678375,217.168427 340.435486,217.118164 340.192596,217.067886 
	C338.406342,222.376053 336.620117,227.684219 334.544159,233.105637 
	C333.502350,234.146408 332.750275,235.073929 331.999084,236.000732 
	C332.000000,236.000000 332.001221,235.998444 332.001221,235.998444 
z"/>
<path fill="#0999F8" opacity="1.000000" stroke="none" 
	d="
M208.767502,277.171539 
	C210.041046,281.051727 211.036575,285.120087 212.063477,290.054169 
	C212.438721,307.389709 207.698563,321.799683 194.810135,332.761261 
	C183.630890,342.269196 170.592682,346.328918 155.557968,345.379639 
	C150.958832,344.271881 146.783676,343.252106 142.608521,342.232330 
	C162.628510,322.432098 182.644669,302.627991 202.674683,282.837921 
	C204.568436,280.966858 206.549133,279.183716 208.767502,277.171539 
z"/>
<path fill="#0050BF" opacity="1.000000" stroke="none" 
	d="
M142.266251,342.171844 
	C146.783676,343.252106 150.958832,344.271881 155.458603,345.679504 
	C153.159088,349.241211 150.533752,352.414093 147.911194,355.589264 
	C145.608704,358.376984 143.309280,361.167236 141.008499,363.956360 
	C136.263565,362.991547 131.518616,362.026764 126.380295,361.081024 
	C117.241463,357.632141 109.862389,352.353394 104.107445,344.423065 
	C105.815369,341.537231 107.683067,338.938904 110.141983,336.296204 
	C116.755974,344.755310 124.951279,349.817322 135.172668,351.727325 
	C126.512268,346.925232 118.315125,341.620605 112.785339,333.101868 
	C115.372955,331.094147 117.960564,329.086426 120.911522,326.973755 
	C126.599037,334.061432 133.193970,339.532593 142.266251,342.171844 
z"/>
<path fill="#0053C2" opacity="1.000000" stroke="none" 
	d="
M303.101471,119.679756 
	C309.610962,120.561554 316.120483,121.443344 323.031311,122.358627 
	C331.358582,124.225311 339.284515,126.058510 347.605286,127.920876 
	C348.964966,128.757141 349.929840,129.564240 352.400116,131.630524 
	C324.209045,139.361450 303.785492,155.476181 289.585876,179.831985 
	C286.939545,181.182617 284.122772,181.844620 282.155273,183.509949 
	C276.798401,188.044128 271.800568,193.002502 266.303833,197.460129 
	C265.905640,195.086990 265.864044,193.046509 265.822418,191.006042 
	C265.448944,183.101257 263.080139,175.864349 258.298584,169.131805 
	C257.764496,168.438156 257.503448,167.956314 257.230865,166.902908 
	C259.521484,164.209213 261.823639,162.087097 264.432007,160.112091 
	C269.850159,166.861542 273.984192,173.942139 275.650146,183.355957 
	C286.423553,162.777924 299.718658,145.369781 320.304932,133.219421 
	C317.201904,132.646576 315.450897,132.306946 313.693878,132.001984 
	C308.119446,131.034500 302.542786,130.079910 297.070984,128.787079 
	C299.150452,125.529129 301.125977,122.604446 303.101471,119.679756 
z"/>
<path fill="#0058C9" opacity="1.000000" stroke="none" 
	d="
M264.125824,159.964966 
	C261.823639,162.087097 259.521484,164.209213 257.115997,166.653122 
	C255.866531,166.034256 254.726303,165.086258 253.573242,164.154144 
	C247.537323,159.274811 247.182022,159.294067 241.310333,164.371674 
	C235.437057,169.450653 228.504990,171.715561 220.413757,172.041260 
	C215.468063,170.577423 210.945908,169.059021 206.263367,166.910828 
	C207.750061,163.481247 209.397141,160.681442 211.370148,158.045258 
	C220.814087,164.870300 230.332123,161.621567 237.981964,153.312973 
	C241.518799,149.471573 245.430008,147.829178 249.815201,150.186554 
	C254.875320,152.906754 259.379974,156.660202 264.125824,159.964966 
z"/>
<path fill="#09A3F9" opacity="1.000000" stroke="none" 
	d="
M265.540039,191.160950 
	C265.864044,193.046509 265.905640,195.086990 265.980255,197.564301 
	C261.656921,222.191467 247.086502,236.361282 223.314301,241.462631 
	C221.540207,241.843353 219.700684,241.919235 217.464554,242.126663 
	C218.355576,240.246902 219.443649,238.150299 221.028778,236.544296 
	C231.771988,225.659821 242.661774,214.920090 253.413055,204.043488 
	C257.485413,199.923676 261.316559,195.565430 265.540039,191.160950 
z"/>
<path fill="#004BB9" opacity="1.000000" stroke="none" 
	d="
M141.408173,364.079407 
	C143.309280,361.167236 145.608704,358.376984 147.911194,355.589264 
	C150.533752,352.414093 153.159088,349.241211 155.882584,345.767456 
	C170.592682,346.328918 183.630890,342.269196 194.810135,332.761261 
	C207.698563,321.799683 212.438721,307.389709 212.131424,290.459534 
	C214.929733,287.399414 217.691483,284.799591 221.102631,282.365295 
	C221.752029,291.107635 221.752029,299.684479 221.752029,309.434875 
	C226.137711,301.356567 230.442627,294.368134 233.833420,286.961212 
	C238.946243,275.792603 243.420609,264.331665 248.166336,252.994995 
	C251.120148,250.484558 254.017578,247.903214 257.050537,245.492371 
	C258.668396,244.206375 260.520416,243.214981 262.618591,242.041504 
	C262.957794,242.396133 262.945129,242.799896 262.920837,243.505615 
	C256.984833,258.623444 251.060516,273.439331 245.061111,288.607605 
	C236.446548,302.781860 228.864548,317.324707 219.132874,330.248901 
	C206.035721,347.642639 188.862015,360.017242 166.379974,364.272522 
	C157.925125,364.323761 149.866486,364.263123 141.408173,364.079407 
z"/>
<path fill="#000000" opacity="1.000000" stroke="none" 
	d="
M248.121078,252.623322 
	C243.420609,264.331665 238.946243,275.792603 233.833420,286.961212 
	C230.442627,294.368134 226.137711,301.356567 221.752029,309.434875 
	C221.752029,299.684479 221.752029,291.107635 221.426910,282.254333 
	C220.179108,271.131256 214.204117,262.439178 208.135406,252.863022 
	C223.696793,254.205658 237.029510,249.575958 250.238647,242.649994 
	C250.858109,242.815598 250.985123,242.954544 251.112152,243.093475 
	C250.100052,246.146210 249.087936,249.198929 248.121078,252.623322 
z"/>
<path fill="#000000" opacity="1.000000" stroke="none" 
	d="
M250.542572,242.466461 
	C250.820023,242.027588 251.285980,241.798935 251.751938,241.570282 
	C251.702194,241.995270 251.652451,242.420258 251.357422,242.969360 
	C250.985123,242.954544 250.858109,242.815598 250.542572,242.466461 
z"/>
<path fill="#005ED0" opacity="1.000000" stroke="none" 
	d="
M211.044220,157.881638 
	C209.397141,160.681442 207.750061,163.481247 206.054352,166.633972 
	C204.595154,165.754730 203.184586,164.522552 201.523804,163.113724 
	C194.925400,151.207962 196.945587,141.155884 207.570572,132.601028 
	C219.005051,123.394409 232.721313,120.200798 246.802277,118.063339 
	C248.606384,117.789474 250.417267,117.560410 252.617859,117.203781 
	C253.456207,117.185310 253.901733,117.273659 254.621490,117.747818 
	C252.261154,121.699997 249.626602,125.266380 246.585938,128.898026 
	C236.219788,131.161240 226.109024,132.872482 217.445236,138.884247 
	C210.148651,143.947311 204.299606,151.222580 211.044220,157.881638 
z"/>
<path fill="#0058C9" opacity="1.000000" stroke="none" 
	d="
M246.992050,128.832764 
	C249.626602,125.266380 252.261154,121.699997 254.954544,117.820145 
	C266.010986,117.510063 277.008575,117.513451 288.471924,117.558174 
	C293.415405,118.198128 297.893158,118.796738 302.736206,119.537552 
	C301.125977,122.604446 299.150452,125.529129 296.621582,128.736084 
	C279.709473,128.956482 263.350769,128.894623 246.992050,128.832764 
z"/>
<path fill="#0049B6" opacity="1.000000" stroke="none" 
	d="
M321.688782,243.159088 
	C321.738708,243.555771 321.627167,244.189621 321.321594,244.935944 
	C321.260803,244.497696 321.394073,243.946991 321.688782,243.159088 
z"/>
<path fill="#000000" opacity="1.000000" stroke="none" 
	d="
M334.833862,232.992386 
	C336.620117,227.684219 338.406342,222.376053 340.192596,217.067886 
	C340.435486,217.118164 340.678375,217.168427 340.921265,217.218704 
	C340.608215,218.886734 340.295166,220.554764 339.928375,222.594055 
	C336.915588,236.513687 333.912659,250.052719 331.015472,263.614349 
	C329.516327,270.631836 328.204712,277.689362 326.799927,284.771362 
	C324.758362,284.771362 323.147675,284.771362 321.415955,284.771362 
	C325.329498,269.640625 329.181458,254.747864 333.352905,239.261505 
	C333.726257,237.780899 333.780121,236.893906 333.985718,235.709625 
	C334.369598,234.605713 334.601715,233.799042 334.833862,232.992386 
z"/>
<path fill="#0049B6" opacity="1.000000" stroke="none" 
	d="
M333.833954,236.006897 
	C333.780121,236.893906 333.726257,237.780899 333.391144,238.857712 
	C332.771820,238.248383 332.433777,237.449265 332.048462,236.324295 
	C332.001221,235.998444 332.000000,236.000000 332.305084,236.001343 
	C333.018097,236.004089 333.426025,236.005493 333.833954,236.006897 
z"/>
<path fill="#000000" opacity="1.000000" stroke="none" 
	d="
M112.482895,332.925537 
	C118.315125,341.620605 126.512268,346.925232 135.172668,351.727325 
	C124.951279,349.817322 116.755974,344.755310 110.428589,336.109436 
	C108.068604,330.132477 106.013245,324.297852 103.957886,318.463257 
	C104.355972,318.332672 104.754059,318.202087 105.152153,318.071503 
	C107.494919,322.964050 109.837677,327.856628 112.482895,332.925537 
z"/>
<path fill="#0043AF" opacity="1.000000" stroke="none" 
	d="
M333.985718,235.709625 
	C333.426025,236.005493 333.018097,236.004089 332.304199,236.002075 
	C332.750275,235.073929 333.502350,234.146408 334.544128,233.105637 
	C334.601715,233.799042 334.369598,234.605713 333.985718,235.709625 
z"/>
<path fill="#000000" opacity="1.000000" stroke="none" 
	d="
M246.585938,128.898026 
	C263.350769,128.894623 279.709473,128.956482 296.517578,129.069336 
	C302.542786,130.079910 308.119446,131.034500 313.693878,132.001984 
	C315.450897,132.306946 317.201904,132.646576 320.304932,133.219421 
	C299.718658,145.369781 286.423553,162.777924 275.650146,183.355957 
	C273.984192,173.942139 269.850159,166.861542 264.432007,160.112091 
	C259.379974,156.660202 254.875320,152.906754 249.815201,150.186554 
	C245.430008,147.829178 241.518799,149.471573 237.981964,153.312973 
	C230.332123,161.621567 220.814087,164.870300 211.370148,158.045258 
	C204.299606,151.222580 210.148651,143.947311 217.445236,138.884247 
	C226.109024,132.872482 236.219788,131.161240 246.585938,128.898026 
z"/>
</svg>