<svg version="1.1" id="Layer_1" xmlns="http://www.w3.org/2000/svg" xmlns:xlink="http://www.w3.org/1999/xlink" x="0px" y="0px"
	 width="100%" viewBox="0 0 1280 1280" enable-background="new 0 0 1280 1280" xml:space="preserve">
<path fill="#FFFFFF" opacity="1.000000" stroke="none" 
	d="
M566.000000,1281.000000 
	C377.333344,1281.000000 189.166672,1281.000000 1.000000,1281.000000 
	C1.000000,854.333313 1.000000,427.666656 1.000000,1.000000 
	C427.666656,1.000000 854.333313,1.000000 1281.000000,1.000000 
	C1281.000000,427.666656 1281.000000,854.333313 1281.000000,1281.000000 
	C1042.833374,1281.000000 804.666687,1281.000000 566.000000,1281.000000 
M513.006836,513.001831 
	C513.006836,513.001831 513.005615,512.981750 512.412109,513.279053 
	C512.224243,513.549744 511.985443,513.798096 511.855804,514.094299 
	C485.903473,573.376892 460.042816,632.699829 433.985565,691.936340 
	C415.499969,733.960022 396.758759,775.871277 378.113770,817.824829 
	C361.358459,855.526367 344.575226,893.215454 327.838867,930.925476 
	C327.548431,931.580017 327.694275,932.428162 327.649506,933.015808 
	C328.090668,933.302490 328.230194,933.472595 328.370087,933.472900 
	C367.009186,933.550110 405.648407,933.645020 444.287201,933.554443 
	C445.591583,933.551392 447.525238,931.951416 448.100830,930.631470 
	C462.529053,897.545044 476.828583,864.402405 491.119934,831.256409 
	C504.226624,800.857849 517.347168,770.464966 530.358459,740.025635 
	C535.453308,728.106445 540.267456,716.067383 545.099792,704.102417 
	C545.099792,704.102417 545.158508,704.197083 545.721191,703.834106 
	C556.766296,678.042297 567.851379,652.267517 578.838196,626.450928 
	C583.708374,615.007080 588.379822,603.478699 593.317322,591.790771 
	C593.317322,591.790771 593.212097,591.547852 593.782715,591.129761 
	C594.442627,589.789734 595.173584,588.479553 595.752014,587.105225 
	C609.863892,553.574646 623.953735,520.034790 638.076660,486.508850 
	C638.736694,484.942017 639.665955,483.488617 640.929749,481.120819 
	C642.125977,483.287079 642.924988,484.473358 643.473511,485.765869 
	C653.597351,509.618286 663.640259,533.505188 673.813660,557.336365 
	C678.691528,568.762878 683.804321,580.089050 688.722046,591.759705 
	C688.722046,591.759705 688.915955,592.004089 688.942871,592.790466 
	C689.493591,594.357361 689.956055,595.962097 690.607971,597.485718 
	C703.137573,626.770081 715.668945,656.053711 728.252930,685.314758 
	C730.987610,691.673706 733.927368,697.944458 736.845215,704.146851 
	C736.845215,704.146851 736.714905,704.134583 736.761230,704.916016 
	C738.238281,708.902893 739.715393,712.889709 741.513367,717.742798 
	C737.687988,717.742798 734.721863,717.744324 731.755737,717.742554 
	C686.425476,717.715271 641.095093,717.729614 595.765198,717.581055 
	C592.075867,717.568970 590.262573,718.590637 588.763489,722.140381 
	C575.756287,752.940796 562.496216,783.634460 549.334900,814.369995 
	C548.857056,815.485962 548.623474,816.706543 548.124023,818.391296 
	C551.056152,818.391296 553.366943,818.391785 555.677673,818.391296 
	C573.510437,818.387573 591.343140,818.380188 609.175903,818.380371 
	C666.006592,818.380981 722.837341,818.385803 779.668030,818.382141 
	C782.307068,818.381958 784.713196,818.026428 786.167725,821.396362 
	C801.797607,857.608032 817.621887,893.735718 833.255798,929.945618 
	C834.432007,932.669861 835.752441,933.705261 838.737244,933.696289 
	C875.568665,933.585693 912.400513,933.602356 949.232239,933.586365 
	C950.808105,933.585693 952.383911,933.586304 954.585449,933.586304 
	C953.886169,931.619019 953.583374,930.544250 953.133545,929.534912 
	C944.941040,911.151733 936.671204,892.802734 928.535278,874.394531 
	C899.066956,807.719971 869.591492,741.048462 840.217590,674.332275 
	C817.755005,623.313477 795.449524,572.225525 773.039246,521.183716 
	C771.922974,518.641418 770.474487,516.244995 769.116272,513.876038 
	C769.116272,513.876038 769.229797,513.895020 769.157043,513.118713 
	C767.778198,509.730927 766.478149,506.308563 765.007690,502.961029 
	C755.313171,480.891998 745.564453,458.846832 735.867310,436.778992 
	C723.356567,408.308563 710.915283,379.807434 698.268982,351.397461 
	C697.659973,350.029297 695.368225,348.574738 693.853577,348.567688 
	C658.553833,348.403503 623.253052,348.392120 587.953430,348.564514 
	C586.360107,348.572296 583.997986,350.206696 583.310608,351.692535 
	C577.451172,364.358459 571.864441,377.151306 566.257141,389.932922 
	C552.164307,422.057159 538.065430,454.178833 524.054382,486.338776 
	C520.210693,495.161285 516.668518,504.115112 513.006836,513.001831 
z"/>
<path fill="#0974DA" opacity="1.000000" stroke="none" 
	d="
M688.915955,592.004089 
	C688.915955,592.004089 688.722046,591.759705 688.834839,591.181030 
	C688.810669,589.459229 688.925720,588.210815 688.499084,587.188599 
	C681.412781,570.210754 674.267273,553.257568 667.116455,536.306763 
	C662.106079,524.429565 657.069336,512.563599 652.041199,500.693939 
	C649.593323,494.915405 647.318237,489.051941 644.565002,483.422577 
	C643.838745,481.937592 641.710754,480.550873 640.062683,480.327667 
	C639.097046,480.196930 637.351318,482.258728 636.751160,483.671722 
	C635.014038,487.761597 633.906433,492.120819 632.140747,496.196198 
	C627.937805,505.896637 623.326721,515.421631 619.192200,525.150024 
	C611.807312,542.526489 604.556213,559.961731 597.467224,577.460754 
	C595.633179,581.988037 594.608521,586.843262 593.212036,591.547852 
	C593.212097,591.547852 593.317322,591.790771 592.889282,592.016846 
	C591.482483,593.486084 590.179993,594.590332 589.577026,595.994873 
	C585.326172,605.896912 581.291077,615.891602 577.051941,625.798767 
	C566.759399,649.853027 556.359314,673.861328 546.122803,697.939270 
	C545.322510,699.821655 545.457947,702.101807 545.158508,704.197083 
	C545.158508,704.197083 545.099792,704.102417 544.809937,704.191772 
	C543.507996,705.563843 542.161499,706.702332 541.536438,708.151978 
	C536.218201,720.487427 531.076599,732.898926 525.795227,745.250549 
	C514.643372,771.331848 503.437897,797.390259 492.257629,823.459412 
	C490.825653,826.798401 489.462891,830.167908 487.981201,833.484497 
	C483.713715,843.036682 479.211914,852.488892 475.145782,862.125305 
	C465.921692,883.985657 456.975708,905.963440 447.706299,927.804199 
	C446.599152,930.412903 444.591278,931.750122 440.684204,931.646973 
	C419.717957,931.093262 398.731018,931.300171 377.751251,931.308472 
	C375.449615,931.309387 373.148438,931.904541 370.846436,931.909241 
	C358.587585,931.934448 346.328308,931.885986 334.069977,931.775696 
	C332.904419,931.765259 331.744293,931.150452 330.255798,930.722534 
	C336.292694,917.407776 342.139099,904.649597 347.864685,891.837341 
	C351.709534,883.233704 355.407806,874.564148 359.126465,865.904663 
	C362.922485,857.065125 366.533112,848.143677 370.457062,839.361816 
	C377.299591,824.048279 384.396149,808.848389 391.243530,793.536987 
	C397.316742,779.956665 403.130707,766.260498 409.184174,752.671204 
	C413.197632,743.661499 417.573334,734.812012 421.528473,725.777710 
	C425.825317,715.962769 429.697510,705.962219 433.980713,696.141113 
	C440.235107,681.800171 446.691589,667.547363 453.060638,653.256409 
	C457.707703,642.829224 462.333740,632.392639 467.003235,621.975464 
	C473.101929,608.369995 479.338593,594.825439 485.324554,581.170715 
	C492.016785,565.904968 498.635040,550.603333 505.004669,535.201172 
	C508.009796,527.934509 510.359131,520.396729 513.005615,512.981750 
	C513.005615,512.981750 513.006836,513.001831 513.361206,512.968079 
	C514.425842,512.296753 515.445496,511.797089 515.800232,511.001038 
	C521.710938,497.736664 527.650208,484.483002 533.358337,471.130859 
	C542.147034,450.572601 550.611023,429.874664 559.499878,409.360382 
	C567.459167,390.991638 575.740906,372.760834 584.098145,354.569244 
	C584.824402,352.988281 587.107605,351.255035 588.786011,351.125305 
	C597.199280,350.474976 605.653503,350.037079 614.090393,350.081848 
	C628.884888,350.160339 643.676514,350.846161 658.470520,350.893005 
	C669.595276,350.928253 680.723267,350.172272 691.846558,350.246796 
	C693.730225,350.259399 696.432007,352.278473 697.324768,354.079773 
	C700.757629,361.006287 703.538574,368.252441 706.693909,375.320862 
	C711.077271,385.140656 715.702454,394.853851 719.996887,404.711670 
	C724.885742,415.933746 729.431763,427.304810 734.291931,438.539673 
	C743.240173,459.224304 752.205627,479.902954 761.406311,500.475647 
	C763.508057,505.175110 766.595886,509.433563 769.229797,513.895020 
	C769.229797,513.895020 769.116272,513.876038 769.079956,514.250122 
	C769.222900,516.091125 769.072693,517.699341 769.632080,519.003113 
	C775.315063,532.249146 781.028931,545.483337 786.901489,558.646118 
	C794.182129,574.965088 801.754089,591.154724 808.958374,607.506714 
	C818.195801,628.473267 827.156982,649.561279 836.302979,670.568359 
	C844.770935,690.018066 853.227295,709.473999 861.875122,728.843994 
	C867.987061,742.533875 874.591064,756.004944 880.645447,769.719360 
	C887.232361,784.640015 893.308228,799.785828 899.846375,814.728699 
	C906.411316,829.732544 913.327820,844.582214 919.985779,859.545898 
	C926.572632,874.349915 933.001404,889.224121 939.553955,904.043457 
	C942.899048,911.608582 946.415466,919.098206 949.723145,926.679260 
	C950.274719,927.943298 950.789246,930.275208 950.205688,930.753906 
	C949.139893,931.628113 947.237976,931.725159 945.688904,931.710693 
	C943.388245,931.689209 941.086060,931.043823 938.793396,931.091370 
	C928.333191,931.307983 917.876587,931.895447 907.417725,931.917908 
	C898.625854,931.936768 889.834839,931.192261 881.039795,931.087036 
	C868.212952,930.933472 855.379700,930.884155 842.555237,931.119263 
	C835.821472,931.242676 834.609192,930.678772 832.857483,924.150391 
	C832.644226,923.355469 832.238281,922.611267 831.911316,921.847900 
	C822.919128,900.858154 814.004333,879.834778 804.900513,858.893616 
	C800.044189,847.722778 793.881592,837.010559 790.158997,825.493286 
	C787.539368,817.388489 783.031860,816.853943 776.171265,816.869263 
	C703.530701,817.030884 630.889709,816.966980 558.248779,816.965332 
	C556.311707,816.965271 554.374634,816.965393 551.386536,816.965393 
	C552.501099,813.259094 553.077209,810.370728 554.220276,807.727661 
	C557.426392,800.314087 561.014404,793.064758 564.179077,785.634583 
	C568.771545,774.851990 573.018494,763.922180 577.612610,753.140381 
	C581.631409,743.708862 586.107544,734.469604 590.009644,724.992310 
	C591.569275,721.204163 593.554443,719.844177 597.758301,719.859558 
	C643.408203,720.026794 689.058899,719.963318 734.709412,719.961670 
	C736.042236,719.961609 737.765442,720.474365 738.626648,719.833862 
	C740.422485,718.498230 743.379517,715.915222 743.006409,714.964783 
	C741.498413,711.123474 738.906616,707.707520 736.714905,704.134583 
	C736.714905,704.134583 736.845215,704.146851 736.893677,703.778381 
	C736.773987,701.943298 736.932129,700.341309 736.388123,699.030701 
	C729.540649,682.532776 722.663696,666.046265 715.649414,649.618591 
	C707.977539,631.650696 700.191223,613.731201 692.330872,595.845032 
	C691.675049,594.352661 690.076538,593.274597 688.915955,592.004089 
z"/>
<path fill="#2A74AD" opacity="1.000000" stroke="none" 
	d="
M736.738037,704.525269 
	C738.906616,707.707520 741.498413,711.123474 743.006409,714.964783 
	C743.379517,715.915222 740.422485,718.498230 738.626648,719.833862 
	C737.765442,720.474365 736.042236,719.961609 734.709412,719.961670 
	C689.058899,719.963318 643.408203,720.026794 597.758301,719.859558 
	C593.554443,719.844177 591.569275,721.204163 590.009644,724.992310 
	C586.107544,734.469604 581.631409,743.708862 577.612610,753.140381 
	C573.018494,763.922180 568.771545,774.851990 564.179077,785.634583 
	C561.014404,793.064758 557.426392,800.314087 554.220276,807.727661 
	C553.077209,810.370728 552.501099,813.259094 551.386536,816.965393 
	C554.374634,816.965393 556.311707,816.965271 558.248779,816.965332 
	C630.889709,816.966980 703.530701,817.030884 776.171265,816.869263 
	C783.031860,816.853943 787.539368,817.388489 790.158997,825.493286 
	C793.881592,837.010559 800.044189,847.722778 804.900513,858.893616 
	C814.004333,879.834778 822.919128,900.858154 831.911316,921.847900 
	C832.238281,922.611267 832.644226,923.355469 832.857483,924.150391 
	C834.609192,930.678772 835.821472,931.242676 842.555237,931.119263 
	C855.379700,930.884155 868.212952,930.933472 881.039795,931.087036 
	C889.834839,931.192261 898.625854,931.936768 907.417725,931.917908 
	C917.876587,931.895447 928.333191,931.307983 938.793396,931.091370 
	C941.086060,931.043823 943.388245,931.689209 945.688904,931.710693 
	C947.237976,931.725159 949.139893,931.628113 950.205688,930.753906 
	C950.789246,930.275208 950.274719,927.943298 949.723145,926.679260 
	C946.415466,919.098206 942.899048,911.608582 939.553955,904.043457 
	C933.001404,889.224121 926.572632,874.349915 919.985779,859.545898 
	C913.327820,844.582214 906.411316,829.732544 899.846375,814.728699 
	C893.308228,799.785828 887.232361,784.640015 880.645447,769.719360 
	C874.591064,756.004944 867.987061,742.533875 861.875122,728.843994 
	C853.227295,709.473999 844.770935,690.018066 836.302979,670.568359 
	C827.156982,649.561279 818.195801,628.473267 808.958374,607.506714 
	C801.754089,591.154724 794.182129,574.965088 786.901489,558.646118 
	C781.028931,545.483337 775.315063,532.249146 769.632080,519.003113 
	C769.072693,517.699341 769.222900,516.091125 769.112183,514.202393 
	C770.474487,516.244995 771.922974,518.641418 773.039246,521.183716 
	C795.449524,572.225525 817.755005,623.313477 840.217590,674.332275 
	C869.591492,741.048462 899.066956,807.719971 928.535278,874.394531 
	C936.671204,892.802734 944.941040,911.151733 953.133545,929.534912 
	C953.583374,930.544250 953.886169,931.619019 954.585449,933.586304 
	C952.383911,933.586304 950.808105,933.585693 949.232239,933.586365 
	C912.400513,933.602356 875.568665,933.585693 838.737244,933.696289 
	C835.752441,933.705261 834.432007,932.669861 833.255798,929.945618 
	C817.621887,893.735718 801.797607,857.608032 786.167725,821.396362 
	C784.713196,818.026428 782.307068,818.381958 779.668030,818.382141 
	C722.837341,818.385803 666.006592,818.380981 609.175903,818.380371 
	C591.343140,818.380188 573.510437,818.387573 555.677673,818.391296 
	C553.366943,818.391785 551.056152,818.391296 548.124023,818.391296 
	C548.623474,816.706543 548.857056,815.485962 549.334900,814.369995 
	C562.496216,783.634460 575.756287,752.940796 588.763489,722.140381 
	C590.262573,718.590637 592.075867,717.568970 595.765198,717.581055 
	C641.095093,717.729614 686.425476,717.715271 731.755737,717.742554 
	C734.721863,717.744324 737.687988,717.742798 741.513367,717.742798 
	C739.715393,712.889709 738.238281,708.902893 736.738037,704.525269 
z"/>
<path fill="#2A74AD" opacity="1.000000" stroke="none" 
	d="
M512.708862,513.130371 
	C510.359131,520.396729 508.009796,527.934509 505.004669,535.201172 
	C498.635040,550.603333 492.016785,565.904968 485.324554,581.170715 
	C479.338593,594.825439 473.101929,608.369995 467.003235,621.975464 
	C462.333740,632.392639 457.707703,642.829224 453.060638,653.256409 
	C446.691589,667.547363 440.235107,681.800171 433.980713,696.141113 
	C429.697510,705.962219 425.825317,715.962769 421.528473,725.777710 
	C417.573334,734.812012 413.197632,743.661499 409.184174,752.671204 
	C403.130707,766.260498 397.316742,779.956665 391.243530,793.536987 
	C384.396149,808.848389 377.299591,824.048279 370.457062,839.361816 
	C366.533112,848.143677 362.922485,857.065125 359.126465,865.904663 
	C355.407806,874.564148 351.709534,883.233704 347.864685,891.837341 
	C342.139099,904.649597 336.292694,917.407776 330.255798,930.722534 
	C331.744293,931.150452 332.904419,931.765259 334.069977,931.775696 
	C346.328308,931.885986 358.587585,931.934448 370.846436,931.909241 
	C373.148438,931.904541 375.449615,931.309387 377.751251,931.308472 
	C398.731018,931.300171 419.717957,931.093262 440.684204,931.646973 
	C444.591278,931.750122 446.599152,930.412903 447.706299,927.804199 
	C456.975708,905.963440 465.921692,883.985657 475.145782,862.125305 
	C479.211914,852.488892 483.713715,843.036682 487.981201,833.484497 
	C489.462891,830.167908 490.825653,826.798401 492.257629,823.459412 
	C503.437897,797.390259 514.643372,771.331848 525.795227,745.250549 
	C531.076599,732.898926 536.218201,720.487427 541.536438,708.151978 
	C542.161499,706.702332 543.507996,705.563843 544.864746,704.182007 
	C540.267456,716.067383 535.453308,728.106445 530.358459,740.025635 
	C517.347168,770.464966 504.226624,800.857849 491.119934,831.256409 
	C476.828583,864.402405 462.529053,897.545044 448.100830,930.631470 
	C447.525238,931.951416 445.591583,933.551392 444.287201,933.554443 
	C405.648407,933.645020 367.009186,933.550110 328.370087,933.472900 
	C328.230194,933.472595 328.090668,933.302490 327.649506,933.015808 
	C327.694275,932.428162 327.548431,931.580017 327.838867,930.925476 
	C344.575226,893.215454 361.358459,855.526367 378.113770,817.824829 
	C396.758759,775.871277 415.499969,733.960022 433.985565,691.936340 
	C460.042816,632.699829 485.903473,573.376892 511.855804,514.094299 
	C511.985443,513.798096 512.224243,513.549744 512.708862,513.130371 
z"/>
<path fill="#2A74AD" opacity="1.000000" stroke="none" 
	d="
M769.193420,513.506836 
	C766.595886,509.433563 763.508057,505.175110 761.406311,500.475647 
	C752.205627,479.902954 743.240173,459.224304 734.291931,438.539673 
	C729.431763,427.304810 724.885742,415.933746 719.996887,404.711670 
	C715.702454,394.853851 711.077271,385.140656 706.693909,375.320862 
	C703.538574,368.252441 700.757629,361.006287 697.324768,354.079773 
	C696.432007,352.278473 693.730225,350.259399 691.846558,350.246796 
	C680.723267,350.172272 669.595276,350.928253 658.470520,350.893005 
	C643.676514,350.846161 628.884888,350.160339 614.090393,350.081848 
	C605.653503,350.037079 597.199280,350.474976 588.786011,351.125305 
	C587.107605,351.255035 584.824402,352.988281 584.098145,354.569244 
	C575.740906,372.760834 567.459167,390.991638 559.499878,409.360382 
	C550.611023,429.874664 542.147034,450.572601 533.358337,471.130859 
	C527.650208,484.483002 521.710938,497.736664 515.800232,511.001038 
	C515.445496,511.797089 514.425842,512.296753 513.351746,512.971497 
	C516.668518,504.115112 520.210693,495.161285 524.054382,486.338776 
	C538.065430,454.178833 552.164307,422.057159 566.257141,389.932922 
	C571.864441,377.151306 577.451172,364.358459 583.310608,351.692535 
	C583.997986,350.206696 586.360107,348.572296 587.953430,348.564514 
	C623.253052,348.392120 658.553833,348.403503 693.853577,348.567688 
	C695.368225,348.574738 697.659973,350.029297 698.268982,351.397461 
	C710.915283,379.807434 723.356567,408.308563 735.867310,436.778992 
	C745.564453,458.846832 755.313171,480.891998 765.007690,502.961029 
	C766.478149,506.308563 767.778198,509.730927 769.193420,513.506836 
z"/>
<path fill="#2A74AD" opacity="1.000000" stroke="none" 
	d="
M593.497375,591.338806 
	C594.608521,586.843262 595.633179,581.988037 597.467224,577.460754 
	C604.556213,559.961731 611.807312,542.526489 619.192200,525.150024 
	C623.326721,515.421631 627.937805,505.896637 632.140747,496.196198 
	C633.906433,492.120819 635.014038,487.761597 636.751160,483.671722 
	C637.351318,482.258728 639.097046,480.196930 640.062683,480.327667 
	C641.710754,480.550873 643.838745,481.937592 644.565002,483.422577 
	C647.318237,489.051941 649.593323,494.915405 652.041199,500.693939 
	C657.069336,512.563599 662.106079,524.429565 667.116455,536.306763 
	C674.267273,553.257568 681.412781,570.210754 688.499084,587.188599 
	C688.925720,588.210815 688.810669,589.459229 688.879272,591.031494 
	C683.804321,580.089050 678.691528,568.762878 673.813660,557.336365 
	C663.640259,533.505188 653.597351,509.618286 643.473511,485.765869 
	C642.924988,484.473358 642.125977,483.287079 640.929749,481.120819 
	C639.665955,483.488617 638.736694,484.942017 638.076660,486.508850 
	C623.953735,520.034790 609.863892,553.574646 595.752014,587.105225 
	C595.173584,588.479553 594.442627,589.789734 593.497375,591.338806 
z"/>
<path fill="#2A74AD" opacity="1.000000" stroke="none" 
	d="
M545.439819,704.015625 
	C545.457947,702.101807 545.322510,699.821655 546.122803,697.939270 
	C556.359314,673.861328 566.759399,649.853027 577.051941,625.798767 
	C581.291077,615.891602 585.326172,605.896912 589.577026,595.994873 
	C590.179993,594.590332 591.482483,593.486084 592.801392,592.115784 
	C588.379822,603.478699 583.708374,615.007080 578.838196,626.450928 
	C567.851379,652.267517 556.766296,678.042297 545.439819,704.015625 
z"/>
<path fill="#2A74AD" opacity="1.000000" stroke="none" 
	d="
M688.929443,592.397278 
	C690.076538,593.274597 691.675049,594.352661 692.330872,595.845032 
	C700.191223,613.731201 707.977539,631.650696 715.649414,649.618591 
	C722.663696,666.046265 729.540649,682.532776 736.388123,699.030701 
	C736.932129,700.341309 736.773987,701.943298 736.857422,703.832886 
	C733.927368,697.944458 730.987610,691.673706 728.252930,685.314758 
	C715.668945,656.053711 703.137573,626.770081 690.607971,597.485718 
	C689.956055,595.962097 689.493591,594.357361 688.929443,592.397278 
z"/>
</svg>